<svg xmlns="http://www.w3.org/2000/svg" viewBox="0 0 726 200" fill="#000" fill-rule="evenodd">
  <path d="M16.69 159.09V85.87H0V67.03h16.69V22.34l21.8-2.42v47.11H82.1v18.84H38.49v69.99c0 15.61 3.77 23.42 16.15 23.42 7.81 0 15.88-3.23 22.07-6.73l5.92 19.11c-7.27 4.04-16.42 8.08-31.76 8.08-23.42 0-34.19-14.27-34.19-40.65z"/>
  <path d="M219.12 119.52v78.6h-21.8v-72.41c0-29.61-12.92-40.11-32.03-40.11-26.11 0-42.53 17.23-42.53 46.57v65.95h-21.8V0h21.8v88.56h.54c10.77-15.07 28-23.15 48.19-23.15 28.53 0 47.65 16.69 47.65 54.11z"/>
  <path d="M356.95 139.44H256c2.96 24.5 20.19 40.38 43.88 40.38 16.42 0 28.8-7.54 36.88-17.77l15.34 13.19c-11.31 14.54-29.07 24.5-53.03 24.5-37.15 0-65.14-27.19-65.14-67.03s27.19-67.3 62.72-67.3 60.84 27.46 60.84 65.14c0 3.5-.54 8.08-.54 8.88zM256.81 121.4h79.14c-3.5-21.54-17.23-35.8-38.23-35.8-21 0-36.88 13.46-40.92 35.8z"/>
  <path d="M576.33 121.41v76.72h-21.8v-70.8c0-29.61-9.96-41.72-30.69-41.72s-36.61 18.04-36.61 47.38v65.14h-21.8v-71.07c0-29.07-10.77-41.46-31.23-41.46s-37.96 18.04-37.96 47.38v65.14H374.7V67.03h21.54v22.61h.27c10.77-15.61 27.19-24.23 44.15-24.23 20.19 0 34.73 8.34 41.73 25.84h.27c10.5-16.69 27.73-25.84 47.65-25.84 29.88 0 46.03 17.23 46.03 55.99z"/>
  <path d="M590.87 132.71c0-37.69 26.92-67.3 67.84-67.3 38.49 0 67.3 27.46 67.3 67.3 0 39.84-28.8 67.03-67.3 67.03-40.92 0-67.84-29.34-67.84-67.03zm113.06 0c0-28-19.92-47.11-45.22-47.11-27.46 0-45.76 21-45.76 47.11s18.57 47.11 45.76 47.11c25.3 0 45.22-19.38 45.22-47.11z"/>
</svg>
